<?xml version="1.0" standalone="no"?><!DOCTYPE svg PUBLIC "-//W3C//DTD SVG 1.1//EN" "http://www.w3.org/Graphics/SVG/1.1/DTD/svg11.dtd"><svg t="1624606064367" class="icon" viewBox="0 0 1024 1024" version="1.1" xmlns="http://www.w3.org/2000/svg" p-id="1137" xmlns:xlink="http://www.w3.org/1999/xlink" width="200" height="200"><defs><style type="text/css"></style></defs><path d="M422.27379989 582.74723244c-3.02887917 1.52950287-6.13037109 2.25949287-9.89542007 2.25949287-8.41999055 0-15.28807639-4.51898574-19.12960052-11.29746437l-1.54958726-2.98484802-60.33502578-129.70879555c-0.73848724-1.52950287-0.73848724-2.9856205-0.73848724-4.51512336 0-6.04848862 4.57923889-10.56747437 10.70883751-10.56747438 2.29039191 0 4.57923889 0.72921753 6.86963081 2.25872041l71.04077339 49.77064133c5.31772614 2.98484802 11.44809724 5.24511337 18.31386566 5.24511336 3.84075165 0 7.60889053-0.72999001 11.44964218-2.26026534L782.14265061 334.70049095c-59.59576607-69.37145233-158.11351777-114.62310791-269.6984768-114.62310791-181.81849479 0-330.03427506 121.40081406-330.03427505 271.3662529 0 81.39427185 44.3100071 155.28084756 113.80351066 205.05148887 5.31463623 3.78899574 9.15538788 10.56747437 9.15538788 17.34209062 0 2.25949287-0.73925972 4.51898574-1.54958725 6.77847861-5.31540871 20.33002853-14.54649925 53.5588646-14.54649926 55.01807213-0.7400322 2.25563049-1.55499458 5.24511337-1.55499458 8.30411911 0 6.04848862 4.58001137 10.56747437 10.71038246 10.56747437 2.28884697 0 4.57923889-0.72921753 6.12959863-2.25949288l71.78003312-41.46188735c5.31849861-2.98948288 11.44809724-5.24820327 17.57846831-5.24820328 3.02501679 0 6.86654092 0.72921753 9.89542008 1.52950287 33.59962463 9.76718903 70.30460358 15.08646011 107.74497985 15.0864601 181.81926727 0 330.0327301-121.40081406 330.0327301-271.36625288 0-45.25165558-13.73462678-88.17275047-37.4396038-125.91593743l-379.58707809 216.34740828-2.28884698 1.52950289z" fill="#09BB07" p-id="1138"></path></svg>